<svg width="16" height="16" viewBox="0 0 1000 1000" fill="#000" xmlns="http://www.w3.org/2000/svg">
    <path
        d="M128 704h128v-192h64v384q0 26 -19 45t-45 19h-128q-26 0 -45 -19t-19 -45v-384h64v192zM128 896h128v-128h-128v128zM960 896v64h-192q-26 0 -45 -19t-19 -45v-320q0 -26 19 -45t45 -19h192v64h-192v320h192zM640 800v96q0 26 -19 45t-45 19h-192v-448h192q26 0 45 19
            t19 45v96q0 26 -9 45t-35 19q26 0 35 19t9 45zM576 576h-128v128h128v-128zM576 768h-128v128h128v-128zM832 384l-416 -448l-224 288l82 70l142 -148l352 302z"
        transform="translate(0 930) scale(-0.97,0.97) rotate(180)"
    />
</svg>
